<mxfile host="app.diagrams.net" agent="Mozilla/5.0 (Windows NT 10.0; Win64; x64) AppleWebKit/537.36 (KHTML, like Gecko) Chrome/138.0.0.0 Safari/537.36 Edg/138.0.0.0" version="28.0.5">
  <diagram name="Page-1" id="irK6IaO30Zjazf4LJ8la">
    <mxGraphModel dx="1182" dy="627" grid="1" gridSize="10" guides="1" tooltips="1" connect="1" arrows="1" fold="1" page="1" pageScale="1" pageWidth="850" pageHeight="1100" math="0" shadow="0">
      <root>
        <mxCell id="0" />
        <mxCell id="1" parent="0" />
        <mxCell id="KT83eKSJZBMpwm8CYjqK-1" value="" style="rounded=0;whiteSpace=wrap;html=1;fillColor=#f8cecc;strokeColor=#b85450;" vertex="1" parent="1">
          <mxGeometry x="315" y="70" width="310" height="310" as="geometry" />
        </mxCell>
        <mxCell id="KT83eKSJZBMpwm8CYjqK-2" value="&lt;div&gt;core&lt;/div&gt;" style="text;html=1;align=center;verticalAlign=middle;resizable=0;points=[];autosize=1;strokeColor=none;fillColor=none;" vertex="1" parent="1">
          <mxGeometry x="315" y="70" width="50" height="30" as="geometry" />
        </mxCell>
        <mxCell id="KT83eKSJZBMpwm8CYjqK-3" style="edgeStyle=orthogonalEdgeStyle;rounded=0;orthogonalLoop=1;jettySize=auto;html=1;entryX=1;entryY=0.5;entryDx=0;entryDy=0;exitX=0.5;exitY=0;exitDx=0;exitDy=0;" edge="1" parent="1" source="KT83eKSJZBMpwm8CYjqK-4" target="KT83eKSJZBMpwm8CYjqK-10">
          <mxGeometry relative="1" as="geometry">
            <Array as="points">
              <mxPoint x="552" y="165" />
            </Array>
          </mxGeometry>
        </mxCell>
        <mxCell id="KT83eKSJZBMpwm8CYjqK-4" value="&lt;br&gt;&lt;div&gt;&lt;br&gt;&lt;/div&gt;" style="rounded=0;whiteSpace=wrap;html=1;fillColor=#ffe6cc;strokeColor=#d79b00;" vertex="1" parent="1">
          <mxGeometry x="492" y="180" width="120" height="160" as="geometry" />
        </mxCell>
        <mxCell id="KT83eKSJZBMpwm8CYjqK-5" value="graphs" style="text;html=1;align=center;verticalAlign=middle;resizable=0;points=[];autosize=1;strokeColor=none;fillColor=none;" vertex="1" parent="1">
          <mxGeometry x="492" y="180" width="60" height="30" as="geometry" />
        </mxCell>
        <mxCell id="KT83eKSJZBMpwm8CYjqK-6" value="index_graph" style="rounded=1;whiteSpace=wrap;html=1;" vertex="1" parent="1">
          <mxGeometry x="502" y="220" width="100" height="30" as="geometry" />
        </mxCell>
        <mxCell id="KT83eKSJZBMpwm8CYjqK-7" value="retrieval_graph" style="rounded=1;whiteSpace=wrap;html=1;" vertex="1" parent="1">
          <mxGeometry x="502" y="260" width="100" height="30" as="geometry" />
        </mxCell>
        <mxCell id="KT83eKSJZBMpwm8CYjqK-8" value="report_graph" style="rounded=1;whiteSpace=wrap;html=1;" vertex="1" parent="1">
          <mxGeometry x="502" y="300" width="100" height="30" as="geometry" />
        </mxCell>
        <mxCell id="KT83eKSJZBMpwm8CYjqK-9" style="edgeStyle=orthogonalEdgeStyle;rounded=0;orthogonalLoop=1;jettySize=auto;html=1;entryX=1;entryY=0.25;entryDx=0;entryDy=0;" edge="1" parent="1" source="KT83eKSJZBMpwm8CYjqK-10" target="KT83eKSJZBMpwm8CYjqK-36">
          <mxGeometry relative="1" as="geometry">
            <Array as="points">
              <mxPoint x="320" y="165" />
              <mxPoint x="320" y="140" />
            </Array>
          </mxGeometry>
        </mxCell>
        <mxCell id="KT83eKSJZBMpwm8CYjqK-10" value="&lt;div&gt;agents&lt;/div&gt;" style="rounded=1;whiteSpace=wrap;html=1;" vertex="1" parent="1">
          <mxGeometry x="330" y="150" width="100" height="30" as="geometry" />
        </mxCell>
        <mxCell id="KT83eKSJZBMpwm8CYjqK-11" style="edgeStyle=orthogonalEdgeStyle;rounded=0;orthogonalLoop=1;jettySize=auto;html=1;entryX=1;entryY=0.25;entryDx=0;entryDy=0;" edge="1" parent="1" source="KT83eKSJZBMpwm8CYjqK-12" target="KT83eKSJZBMpwm8CYjqK-36">
          <mxGeometry relative="1" as="geometry">
            <Array as="points">
              <mxPoint x="320" y="125" />
              <mxPoint x="320" y="140" />
            </Array>
          </mxGeometry>
        </mxCell>
        <mxCell id="KT83eKSJZBMpwm8CYjqK-12" value="configuration" style="rounded=1;whiteSpace=wrap;html=1;fillColor=#f5f5f5;fontColor=#333333;strokeColor=#666666;" vertex="1" parent="1">
          <mxGeometry x="330" y="110" width="100" height="30" as="geometry" />
        </mxCell>
        <mxCell id="KT83eKSJZBMpwm8CYjqK-13" style="edgeStyle=orthogonalEdgeStyle;rounded=0;orthogonalLoop=1;jettySize=auto;html=1;entryX=0;entryY=0.5;entryDx=0;entryDy=0;" edge="1" parent="1" source="KT83eKSJZBMpwm8CYjqK-14" target="KT83eKSJZBMpwm8CYjqK-4">
          <mxGeometry relative="1" as="geometry" />
        </mxCell>
        <mxCell id="KT83eKSJZBMpwm8CYjqK-14" value="models" style="rounded=1;whiteSpace=wrap;html=1;" vertex="1" parent="1">
          <mxGeometry x="330" y="260" width="100" height="30" as="geometry" />
        </mxCell>
        <mxCell id="KT83eKSJZBMpwm8CYjqK-15" style="edgeStyle=orthogonalEdgeStyle;rounded=0;orthogonalLoop=1;jettySize=auto;html=1;entryX=0;entryY=0.5;entryDx=0;entryDy=0;" edge="1" parent="1" source="KT83eKSJZBMpwm8CYjqK-16" target="KT83eKSJZBMpwm8CYjqK-4">
          <mxGeometry relative="1" as="geometry" />
        </mxCell>
        <mxCell id="KT83eKSJZBMpwm8CYjqK-16" value="retrieval" style="rounded=1;whiteSpace=wrap;html=1;" vertex="1" parent="1">
          <mxGeometry x="330" y="300" width="100" height="30" as="geometry" />
        </mxCell>
        <mxCell id="KT83eKSJZBMpwm8CYjqK-17" style="edgeStyle=orthogonalEdgeStyle;rounded=0;orthogonalLoop=1;jettySize=auto;html=1;entryX=0;entryY=0.5;entryDx=0;entryDy=0;" edge="1" parent="1" source="KT83eKSJZBMpwm8CYjqK-18" target="KT83eKSJZBMpwm8CYjqK-4">
          <mxGeometry relative="1" as="geometry" />
        </mxCell>
        <mxCell id="KT83eKSJZBMpwm8CYjqK-18" value="state" style="rounded=1;whiteSpace=wrap;html=1;" vertex="1" parent="1">
          <mxGeometry x="330" y="340" width="100" height="30" as="geometry" />
        </mxCell>
        <mxCell id="KT83eKSJZBMpwm8CYjqK-19" value="" style="rounded=0;whiteSpace=wrap;html=1;fillColor=#dae8fc;strokeColor=#6c8ebf;" vertex="1" parent="1">
          <mxGeometry x="495" y="395" width="130" height="180" as="geometry" />
        </mxCell>
        <mxCell id="KT83eKSJZBMpwm8CYjqK-20" value="&lt;div&gt;parser&lt;/div&gt;" style="text;html=1;align=center;verticalAlign=middle;resizable=0;points=[];autosize=1;strokeColor=none;fillColor=none;" vertex="1" parent="1">
          <mxGeometry x="495" y="395" width="60" height="30" as="geometry" />
        </mxCell>
        <mxCell id="KT83eKSJZBMpwm8CYjqK-22" value="vision_loader" style="rounded=1;whiteSpace=wrap;html=1;" vertex="1" parent="1">
          <mxGeometry x="510" y="425" width="100" height="30" as="geometry" />
        </mxCell>
        <mxCell id="KT83eKSJZBMpwm8CYjqK-23" style="edgeStyle=orthogonalEdgeStyle;rounded=0;orthogonalLoop=1;jettySize=auto;html=1;entryX=0.5;entryY=1;entryDx=0;entryDy=0;" edge="1" parent="1" source="KT83eKSJZBMpwm8CYjqK-24" target="KT83eKSJZBMpwm8CYjqK-22">
          <mxGeometry relative="1" as="geometry" />
        </mxCell>
        <mxCell id="KT83eKSJZBMpwm8CYjqK-24" value="parser" style="rounded=1;whiteSpace=wrap;html=1;" vertex="1" parent="1">
          <mxGeometry x="510" y="485" width="100" height="30" as="geometry" />
        </mxCell>
        <mxCell id="KT83eKSJZBMpwm8CYjqK-25" value="validation" style="rounded=1;whiteSpace=wrap;html=1;dashed=1;" vertex="1" parent="1">
          <mxGeometry x="510" y="525" width="100" height="30" as="geometry" />
        </mxCell>
        <mxCell id="KT83eKSJZBMpwm8CYjqK-26" value="" style="rounded=0;whiteSpace=wrap;html=1;fillColor=#dae8fc;strokeColor=#6c8ebf;" vertex="1" parent="1">
          <mxGeometry x="315" y="395" width="130" height="155" as="geometry" />
        </mxCell>
        <mxCell id="KT83eKSJZBMpwm8CYjqK-27" value="utils" style="text;html=1;align=center;verticalAlign=middle;resizable=0;points=[];autosize=1;strokeColor=none;fillColor=none;" vertex="1" parent="1">
          <mxGeometry x="315" y="395" width="40" height="30" as="geometry" />
        </mxCell>
        <mxCell id="KT83eKSJZBMpwm8CYjqK-28" value="utils" style="rounded=1;whiteSpace=wrap;html=1;" vertex="1" parent="1">
          <mxGeometry x="330" y="430" width="100" height="30" as="geometry" />
        </mxCell>
        <mxCell id="KT83eKSJZBMpwm8CYjqK-29" style="edgeStyle=orthogonalEdgeStyle;rounded=0;orthogonalLoop=1;jettySize=auto;html=1;entryX=1;entryY=0.5;entryDx=0;entryDy=0;" edge="1" parent="1" source="KT83eKSJZBMpwm8CYjqK-31" target="KT83eKSJZBMpwm8CYjqK-44">
          <mxGeometry relative="1" as="geometry" />
        </mxCell>
        <mxCell id="KT83eKSJZBMpwm8CYjqK-30" style="edgeStyle=orthogonalEdgeStyle;rounded=0;orthogonalLoop=1;jettySize=auto;html=1;entryX=0.5;entryY=1;entryDx=0;entryDy=0;" edge="1" parent="1" source="KT83eKSJZBMpwm8CYjqK-31" target="KT83eKSJZBMpwm8CYjqK-1">
          <mxGeometry relative="1" as="geometry">
            <Array as="points">
              <mxPoint x="470" y="575" />
            </Array>
          </mxGeometry>
        </mxCell>
        <mxCell id="KT83eKSJZBMpwm8CYjqK-31" value="constant" style="rounded=1;whiteSpace=wrap;html=1;" vertex="1" parent="1">
          <mxGeometry x="330" y="560" width="100" height="30" as="geometry" />
        </mxCell>
        <mxCell id="KT83eKSJZBMpwm8CYjqK-32" style="edgeStyle=orthogonalEdgeStyle;rounded=0;orthogonalLoop=1;jettySize=auto;html=1;entryX=0;entryY=0.5;entryDx=0;entryDy=0;" edge="1" parent="1" source="KT83eKSJZBMpwm8CYjqK-33" target="KT83eKSJZBMpwm8CYjqK-4">
          <mxGeometry relative="1" as="geometry" />
        </mxCell>
        <mxCell id="KT83eKSJZBMpwm8CYjqK-33" value="prompts" style="rounded=1;whiteSpace=wrap;html=1;" vertex="1" parent="1">
          <mxGeometry x="330" y="220" width="100" height="30" as="geometry" />
        </mxCell>
        <mxCell id="KT83eKSJZBMpwm8CYjqK-34" value="converter" style="rounded=1;whiteSpace=wrap;html=1;" vertex="1" parent="1">
          <mxGeometry x="330" y="510" width="100" height="30" as="geometry" />
        </mxCell>
        <mxCell id="KT83eKSJZBMpwm8CYjqK-35" value="logging" style="rounded=1;whiteSpace=wrap;html=1;" vertex="1" parent="1">
          <mxGeometry x="330" y="470" width="100" height="30" as="geometry" />
        </mxCell>
        <mxCell id="KT83eKSJZBMpwm8CYjqK-36" value="" style="rounded=0;whiteSpace=wrap;html=1;fillColor=#d5e8d4;strokeColor=#82b366;" vertex="1" parent="1">
          <mxGeometry x="185" y="70" width="110" height="280" as="geometry" />
        </mxCell>
        <mxCell id="KT83eKSJZBMpwm8CYjqK-37" value="pages" style="text;html=1;align=center;verticalAlign=middle;resizable=0;points=[];autosize=1;strokeColor=none;fillColor=none;" vertex="1" parent="1">
          <mxGeometry x="180" y="70" width="60" height="30" as="geometry" />
        </mxCell>
        <mxCell id="KT83eKSJZBMpwm8CYjqK-38" value="discussion" style="rounded=1;whiteSpace=wrap;html=1;" vertex="1" parent="1">
          <mxGeometry x="190" y="150" width="100" height="30" as="geometry" />
        </mxCell>
        <mxCell id="KT83eKSJZBMpwm8CYjqK-39" value="report" style="rounded=1;whiteSpace=wrap;html=1;" vertex="1" parent="1">
          <mxGeometry x="190" y="190" width="100" height="30" as="geometry" />
        </mxCell>
        <mxCell id="KT83eKSJZBMpwm8CYjqK-40" value="index" style="rounded=1;whiteSpace=wrap;html=1;" vertex="1" parent="1">
          <mxGeometry x="190" y="230" width="100" height="30" as="geometry" />
        </mxCell>
        <mxCell id="KT83eKSJZBMpwm8CYjqK-41" value="configuration" style="rounded=1;whiteSpace=wrap;html=1;" vertex="1" parent="1">
          <mxGeometry x="190" y="270" width="100" height="30" as="geometry" />
        </mxCell>
        <mxCell id="KT83eKSJZBMpwm8CYjqK-42" value="models" style="rounded=1;whiteSpace=wrap;html=1;" vertex="1" parent="1">
          <mxGeometry x="190" y="310" width="100" height="30" as="geometry" />
        </mxCell>
        <mxCell id="KT83eKSJZBMpwm8CYjqK-43" style="edgeStyle=orthogonalEdgeStyle;rounded=0;orthogonalLoop=1;jettySize=auto;html=1;entryX=0.5;entryY=1;entryDx=0;entryDy=0;" edge="1" parent="1" source="KT83eKSJZBMpwm8CYjqK-44" target="KT83eKSJZBMpwm8CYjqK-46">
          <mxGeometry relative="1" as="geometry" />
        </mxCell>
        <mxCell id="KT83eKSJZBMpwm8CYjqK-44" value="main" style="rounded=1;whiteSpace=wrap;html=1;fillColor=#e1d5e7;strokeColor=#9673a6;" vertex="1" parent="1">
          <mxGeometry x="190" y="560" width="100" height="30" as="geometry" />
        </mxCell>
        <mxCell id="KT83eKSJZBMpwm8CYjqK-45" style="edgeStyle=orthogonalEdgeStyle;rounded=0;orthogonalLoop=1;jettySize=auto;html=1;entryX=0.5;entryY=1;entryDx=0;entryDy=0;" edge="1" parent="1" source="KT83eKSJZBMpwm8CYjqK-46" target="KT83eKSJZBMpwm8CYjqK-36">
          <mxGeometry relative="1" as="geometry" />
        </mxCell>
        <mxCell id="KT83eKSJZBMpwm8CYjqK-46" value="streamlit_app" style="rounded=1;whiteSpace=wrap;html=1;" vertex="1" parent="1">
          <mxGeometry x="190" y="395" width="100" height="30" as="geometry" />
        </mxCell>
        <mxCell id="KT83eKSJZBMpwm8CYjqK-47" style="edgeStyle=orthogonalEdgeStyle;rounded=0;orthogonalLoop=1;jettySize=auto;html=1;entryX=0.5;entryY=1;entryDx=0;entryDy=0;" edge="1" parent="1" source="KT83eKSJZBMpwm8CYjqK-31" target="KT83eKSJZBMpwm8CYjqK-26">
          <mxGeometry relative="1" as="geometry">
            <Array as="points">
              <mxPoint x="385" y="560" />
              <mxPoint x="385" y="560" />
            </Array>
          </mxGeometry>
        </mxCell>
        <mxCell id="KT83eKSJZBMpwm8CYjqK-48" value="home" style="rounded=1;whiteSpace=wrap;html=1;" vertex="1" parent="1">
          <mxGeometry x="190" y="110" width="100" height="30" as="geometry" />
        </mxCell>
        <mxCell id="KT83eKSJZBMpwm8CYjqK-49" style="edgeStyle=orthogonalEdgeStyle;rounded=0;orthogonalLoop=1;jettySize=auto;html=1;entryX=0.567;entryY=0.989;entryDx=0;entryDy=0;entryPerimeter=0;" edge="1" parent="1" source="KT83eKSJZBMpwm8CYjqK-22" target="KT83eKSJZBMpwm8CYjqK-4">
          <mxGeometry relative="1" as="geometry" />
        </mxCell>
      </root>
    </mxGraphModel>
  </diagram>
</mxfile>
